<svg width="21" height="27" viewBox="0 0 21 27" fill="none" xmlns="http://www.w3.org/2000/svg">
<line x1="0.5" y1="1" x2="0.5" y2="27" stroke="white"/>
<line y1="0.5" x2="10" y2="0.5" stroke="white"/>
<line x1="1" y1="26.5" x2="10" y2="26.5" stroke="white"/>
<path d="M20.7071 14.7071C21.0976 14.3166 21.0976 13.6834 20.7071 13.2929L14.3431 6.92893C13.9526 6.53841 13.3195 6.53841 12.9289 6.92893C12.5384 7.31946 12.5384 7.95262 12.9289 8.34315L18.5858 14L12.9289 19.6569C12.5384 20.0474 12.5384 20.6805 12.9289 21.0711C13.3195 21.4616 13.9526 21.4616 14.3431 21.0711L20.7071 14.7071ZM5 14V15H20V14V13H5V14Z" fill="white"/>
</svg>
