<svg width="50" height="41" viewBox="0 0 50 41" fill="none" xmlns="http://www.w3.org/2000/svg">
<rect width="50" height="41" rx="20.5" fill="#0004FF"/>
<rect width="50" height="41" rx="20.5" fill="#0004FF"/>
<path d="M28 13C28 16.3137 25.3137 19 22 19C18.6863 19 16 16.3137 16 13C16 9.68629 18.6863 7 22 7C25.3137 7 28 9.68629 28 13ZM17.076 13C17.076 15.7195 19.2805 17.924 22 17.924C24.7195 17.924 26.924 15.7195 26.924 13C26.924 10.2805 24.7195 8.07597 22 8.07597C19.2805 8.07597 17.076 10.2805 17.076 13Z" fill="#D9D9D9"/>
<path d="M11.0761 28.1375C11.2134 25.7104 12.4267 23.4188 14.4668 21.7332C16.5069 20.0476 19.2189 19.0959 22.0459 19.0736C24.8729 19.0514 27.6004 19.9601 29.6683 21.6134C31.7361 23.2666 32.9874 25.5388 33.1651 27.9634L31.6624 28.0474C31.5088 25.9528 30.4279 23.9899 28.6415 22.5617C26.8551 21.1335 24.4989 20.3484 22.0567 20.3677C19.6145 20.3869 17.2716 21.209 15.5092 22.6652C13.7468 24.1214 12.6987 26.1011 12.58 28.1978L11.0761 28.1375Z" fill="#D9D9D9"/>
<path d="M30.0618 19.0735C31.5145 19.0639 32.9546 19.3002 34.2998 19.7691C35.6451 20.2379 36.8692 20.9301 37.9022 21.806C38.9353 22.682 39.7571 23.7246 40.3206 24.8743C40.8842 26.024 41.1785 27.2584 41.1868 28.5068L39.6811 28.5168C39.674 27.4383 39.4197 26.372 38.9328 25.3788C38.446 24.3855 37.7361 23.4849 36.8436 22.7281C35.9512 21.9714 34.8937 21.3734 33.7316 20.9684C32.5694 20.5634 31.3254 20.3592 30.0704 20.3676L30.0618 19.0735Z" fill="#D9D9D9"/>
<path d="M29.9916 8.07412C31.2008 8.12441 32.3462 8.65431 33.1925 9.55502C34.0388 10.4557 34.5218 11.6589 34.5423 12.9174C34.5629 14.1759 34.1194 15.3943 33.3029 16.3223C32.4865 17.2503 31.359 17.8176 30.1521 17.9076L30.1053 17.2389C31.1479 17.1612 32.1219 16.6711 32.8272 15.8694C33.5325 15.0677 33.9156 14.0152 33.8979 12.928C33.8802 11.8408 33.4629 10.8014 32.7318 10.0233C32.0007 9.24518 31.0112 8.78741 29.9666 8.74397L29.9916 8.07412Z" fill="#D9D9D9"/>
</svg>
