<svg width="18" height="21" viewBox="0 0 18 21" fill="none" xmlns="http://www.w3.org/2000/svg">
  <path d="M18 10.5C18 16.299 13.9706 21 9 21C4.02944 21 0 16.299 0 10.5C0 4.70101 4.02944 0 9 0C13.9706 0 18 4.70101 18 10.5ZM0.853082 10.5C0.853082 15.7493 4.50058 20.0047 9 20.0047C13.4994 20.0047 17.1469 15.7493 17.1469 10.5C17.1469 5.25068 13.4994 0.995261 9 0.995261C4.50058 0.995261 0.853082 5.25068 0.853082 10.5Z" fill="#050D69"/>
  <line x1="8.5" y1="2" x2="8.5" y2="10" stroke="#050D69"/>
  <line y1="-0.5" x2="6.96059" y2="-0.5" transform="matrix(0.688896 0.72486 -0.471452 0.881892 7.85107 10.5)" stroke="#050D69"/>
</svg>
